<svg xmlns="http://www.w3.org/2000/svg" width="29" height="26" fill="currentColor"><path d="m9.07 18.034.071-.144.935-1.903.027-.056h.062l15.525-.028c.477 0 .886-.34.97-.811L9.07 18.034Zm0 0h18.771a1.006 1.006 0 0 1 1.006 1c0 .555-.452 1.004-1.003 1.004h-3.74l.119.16a3.109 3.109 0 0 1-2.482 4.975 3.109 3.109 0 0 1-3.107-3.107c0-.674.219-1.33.624-1.868l.12-.16h-5.434l.12.16a3.109 3.109 0 0 1-2.482 4.975 3.109 3.109 0 0 1-3.107-3.107c0-.674.218-1.33.624-1.868l.12-.16H7.056a1 1 0 0 1-.895-.552.992.992 0 0 1 .085-1.045l.005-.008 2.337-3.815.021-.034-.008-.039-1.816-8.79-.737-3.507-.017-.08H2.016a1.003 1.003 0 0 1 0-2.006h4.828c.471 0 .887.336.983.796l.169.794.017.079h.08l19.75.066a.993.993 0 0 1 .755.355.986.986 0 0 1 .213.805l-2.15 12.035-17.59 2.942ZM8.554 3.806H8.43l.025.12 2.097 9.954.017.08h.081l14.135-.026h.083l.015-.082 1.762-9.869.021-.117h-.119l-17.994-.06Zm1.94 18.26a1.09 1.09 0 0 0 1.857.769 1.088 1.088 0 1 0-1.856-.77Zm10.16 0a1.09 1.09 0 0 0 1.857.769 1.088 1.088 0 1 0-1.857-.77Z"/></svg>